<svg xmlns="http://www.w3.org/2000/svg" width="340" height="499" viewBox="0 0 340 499">
  <g id="inside" transform="translate(20 20)" fill="none" stroke="#fff" stroke-width="20">
    <path d="M70,0H230a70,70,0,0,1,70,70V459a0,0,0,0,1,0,0H0a0,0,0,0,1,0,0V70A70,70,0,0,1,70,0Z" stroke="none"/>
    <path d="M70-10H230a80,80,0,0,1,80,80V459a10,10,0,0,1-10,10H0a10,10,0,0,1-10-10V70A80,80,0,0,1,70-10Z" fill="none"/>
  </g>
  <g id="inside-2" data-name="inside" transform="translate(20 20)" fill="none" stroke="#000" stroke-width="5">
    <path d="M70,0H230a70,70,0,0,1,70,70V459a0,0,0,0,1,0,0H0a0,0,0,0,1,0,0V70A70,70,0,0,1,70,0Z" stroke="none"/>
    <path d="M70-2.5H230A72.5,72.5,0,0,1,302.5,70V459a2.5,2.5,0,0,1-2.5,2.5H0A2.5,2.5,0,0,1-2.5,459V70A72.5,72.5,0,0,1,70-2.5Z" fill="none"/>
  </g>
  <g id="outside" transform="translate(8 8)" fill="none" stroke="#000" stroke-width="1">
    <path d="M80,0H244a80,80,0,0,1,80,80V483a0,0,0,0,1,0,0H0a0,0,0,0,1,0,0V80A80,80,0,0,1,80,0Z" stroke="none"/>
    <path d="M80,.5H244A79.5,79.5,0,0,1,323.5,80V482a.5.5,0,0,1-.5.5H1a.5.5,0,0,1-.5-.5V80A79.5,79.5,0,0,1,80,.5Z" fill="none"/>
  </g>
</svg>
